<svg xmlns="http://www.w3.org/2000/svg" xmlns:xlink="http://www.w3.org/1999/xlink" width="1920" height="1080" viewBox="0 0 1920 1080">
  <defs>
    <clipPath id="clip-path">
      <rect id="Rectangle_3889" data-name="Rectangle 3889" width="1920" height="1080" transform="translate(0 209)" fill="#fff"/>
    </clipPath>
  </defs>
  <g id="Mask_Group_25" data-name="Mask Group 25" transform="translate(0 -209)" clip-path="url(#clip-path)">
    <g id="Group_102" data-name="Group 102" transform="translate(1070.123 -846.935) rotate(45)">
      <rect id="Rectangle_3625" data-name="Rectangle 3625" width="64.208" height="64.208" transform="translate(43 218)" fill="#ecf7ff"/>
      <rect id="Rectangle_3626" data-name="Rectangle 3626" width="64.208" height="64.208" transform="translate(43 1214.511)" fill="#ecf7ff"/>
      <rect id="Rectangle_3627" data-name="Rectangle 3627" width="64.208" height="64.208" transform="translate(43 1546.315)" fill="#ecf7ff"/>
      <rect id="Rectangle_3628" data-name="Rectangle 3628" width="64.208" height="64.208" transform="translate(43 1878.118)" fill="#ecf7ff"/>
      <rect id="Rectangle_3629" data-name="Rectangle 3629" width="64.208" height="209.662" transform="translate(43 311.366)" fill="#ecf7ff"/>
      <rect id="Rectangle_3630" data-name="Rectangle 3630" width="64.208" height="209.662" transform="translate(43 1307.878)" fill="#ecf7ff"/>
      <rect id="Rectangle_3631" data-name="Rectangle 3631" width="64.208" height="209.662" transform="translate(43 1639.681)" fill="#ecf7ff"/>
      <rect id="Rectangle_3632" data-name="Rectangle 3632" width="64.208" height="209.662" transform="translate(43 1971.484)" fill="#ecf7ff"/>
      <rect id="Rectangle_3633" data-name="Rectangle 3633" width="64.208" height="64.208" transform="translate(136.132 550.186)" fill="#ecf7ff"/>
      <rect id="Rectangle_3634" data-name="Rectangle 3634" width="64.208" height="209.662" transform="translate(136.132 643.552)" fill="#ecf7ff"/>
      <rect id="Rectangle_3635" data-name="Rectangle 3635" width="64.208" height="209.662" transform="translate(43 550.186)" fill="#ecf7ff"/>
      <rect id="Rectangle_3636" data-name="Rectangle 3636" width="64.208" height="64.208" transform="translate(136.132 456.819)" fill="#ecf7ff"/>
      <rect id="Rectangle_3637" data-name="Rectangle 3637" width="64.208" height="209.662" transform="translate(136.132 218)" fill="#ecf7ff"/>
      <rect id="Rectangle_3638" data-name="Rectangle 3638" width="64.208" height="209.662" transform="translate(136.132 1214.511)" fill="#ecf7ff"/>
      <rect id="Rectangle_3639" data-name="Rectangle 3639" width="64.208" height="209.662" transform="translate(136.132 1546.315)" fill="#ecf7ff"/>
      <rect id="Rectangle_3640" data-name="Rectangle 3640" width="64.208" height="209.662" transform="translate(136.132 1878.118)" fill="#ecf7ff"/>
      <rect id="Rectangle_3641" data-name="Rectangle 3641" width="64.208" height="64.208" transform="translate(43 882.371)" fill="#ecf7ff"/>
      <rect id="Rectangle_3642" data-name="Rectangle 3642" width="64.208" height="209.662" transform="translate(43 975.737)" fill="#ecf7ff"/>
      <rect id="Rectangle_3643" data-name="Rectangle 3643" width="64.208" height="64.208" transform="translate(136.132 1121.191)" fill="#ecf7ff"/>
      <rect id="Rectangle_3644" data-name="Rectangle 3644" width="64.208" height="64.208" transform="translate(136.132 1452.994)" fill="#ecf7ff"/>
      <rect id="Rectangle_3645" data-name="Rectangle 3645" width="64.208" height="64.208" transform="translate(136.132 1784.797)" fill="#ecf7ff"/>
      <rect id="Rectangle_3646" data-name="Rectangle 3646" width="64.208" height="64.208" transform="translate(136.132 2116.6)" fill="#ecf7ff"/>
      <rect id="Rectangle_3647" data-name="Rectangle 3647" width="64.208" height="209.662" transform="translate(136.132 882.371)" fill="#ecf7ff"/>
      <rect id="Rectangle_3648" data-name="Rectangle 3648" width="64.208" height="64.208" transform="translate(43 789.005)" fill="#ecf7ff"/>
      <rect id="Rectangle_3649" data-name="Rectangle 3649" width="64.208" height="64.208" transform="translate(229.264 218.213)" fill="#ecf7ff"/>
      <rect id="Rectangle_3650" data-name="Rectangle 3650" width="64.208" height="64.208" transform="translate(229.264 1214.724)" fill="#ecf7ff"/>
      <rect id="Rectangle_3651" data-name="Rectangle 3651" width="64.208" height="64.208" transform="translate(229.264 1546.528)" fill="#ecf7ff"/>
      <rect id="Rectangle_3652" data-name="Rectangle 3652" width="64.208" height="64.208" transform="translate(229.264 1878.331)" fill="#ecf7ff"/>
      <rect id="Rectangle_3653" data-name="Rectangle 3653" width="64.208" height="209.662" transform="translate(229.264 311.579)" fill="#ecf7ff"/>
      <rect id="Rectangle_3654" data-name="Rectangle 3654" width="64.208" height="209.662" transform="translate(229.264 1308.091)" fill="#ecf7ff"/>
      <rect id="Rectangle_3655" data-name="Rectangle 3655" width="64.208" height="209.662" transform="translate(229.264 1639.894)" fill="#ecf7ff"/>
      <rect id="Rectangle_3656" data-name="Rectangle 3656" width="64.208" height="209.662" transform="translate(229.264 1971.697)" fill="#ecf7ff"/>
      <rect id="Rectangle_3657" data-name="Rectangle 3657" width="64.208" height="64.208" transform="translate(322.396 550.399)" fill="#ecf7ff"/>
      <rect id="Rectangle_3658" data-name="Rectangle 3658" width="64.208" height="209.662" transform="translate(322.396 643.765)" fill="#ecf7ff"/>
      <rect id="Rectangle_3659" data-name="Rectangle 3659" width="64.208" height="209.662" transform="translate(229.264 550.399)" fill="#ecf7ff"/>
      <rect id="Rectangle_3660" data-name="Rectangle 3660" width="64.208" height="64.208" transform="translate(322.396 457.032)" fill="#ecf7ff"/>
      <rect id="Rectangle_3661" data-name="Rectangle 3661" width="64.208" height="209.662" transform="translate(322.396 218.213)" fill="#ecf7ff"/>
      <rect id="Rectangle_3662" data-name="Rectangle 3662" width="64.208" height="209.662" transform="translate(322.396 1214.724)" fill="#ecf7ff"/>
      <rect id="Rectangle_3663" data-name="Rectangle 3663" width="64.208" height="209.662" transform="translate(322.396 1546.528)" fill="#ecf7ff"/>
      <rect id="Rectangle_3664" data-name="Rectangle 3664" width="64.208" height="209.662" transform="translate(322.396 1878.331)" fill="#ecf7ff"/>
      <rect id="Rectangle_3665" data-name="Rectangle 3665" width="64.208" height="64.208" transform="translate(229.264 882.584)" fill="#ecf7ff"/>
      <rect id="Rectangle_3666" data-name="Rectangle 3666" width="64.208" height="209.662" transform="translate(229.264 975.95)" fill="#ecf7ff"/>
      <rect id="Rectangle_3667" data-name="Rectangle 3667" width="64.208" height="64.208" transform="translate(322.396 1121.404)" fill="#ecf7ff"/>
      <rect id="Rectangle_3668" data-name="Rectangle 3668" width="64.208" height="64.208" transform="translate(322.396 1453.207)" fill="#ecf7ff"/>
      <rect id="Rectangle_3669" data-name="Rectangle 3669" width="64.208" height="64.208" transform="translate(322.396 1785.01)" fill="#ecf7ff"/>
      <rect id="Rectangle_3670" data-name="Rectangle 3670" width="64.208" height="64.208" transform="translate(322.396 2116.813)" fill="#ecf7ff"/>
      <rect id="Rectangle_3671" data-name="Rectangle 3671" width="64.208" height="209.662" transform="translate(322.396 882.584)" fill="#ecf7ff"/>
      <rect id="Rectangle_3672" data-name="Rectangle 3672" width="64.208" height="64.208" transform="translate(229.264 789.218)" fill="#ecf7ff"/>
      <rect id="Rectangle_3673" data-name="Rectangle 3673" width="64.208" height="64.208" transform="translate(415.528 218)" fill="#ecf7ff"/>
      <rect id="Rectangle_3674" data-name="Rectangle 3674" width="64.208" height="64.208" transform="translate(415.528 1214.511)" fill="#ecf7ff"/>
      <rect id="Rectangle_3675" data-name="Rectangle 3675" width="64.208" height="64.208" transform="translate(415.528 1546.315)" fill="#ecf7ff"/>
      <rect id="Rectangle_3676" data-name="Rectangle 3676" width="64.208" height="64.208" transform="translate(415.528 1878.118)" fill="#ecf7ff"/>
      <rect id="Rectangle_3677" data-name="Rectangle 3677" width="64.208" height="209.662" transform="translate(415.528 311.366)" fill="#ecf7ff"/>
      <rect id="Rectangle_3678" data-name="Rectangle 3678" width="64.208" height="209.662" transform="translate(415.528 1307.878)" fill="#ecf7ff"/>
      <rect id="Rectangle_3679" data-name="Rectangle 3679" width="64.208" height="209.662" transform="translate(415.528 1639.681)" fill="#ecf7ff"/>
      <rect id="Rectangle_3680" data-name="Rectangle 3680" width="64.208" height="209.662" transform="translate(415.528 1971.484)" fill="#ecf7ff"/>
      <rect id="Rectangle_3681" data-name="Rectangle 3681" width="64.208" height="64.208" transform="translate(508.66 550.186)" fill="#ecf7ff"/>
      <rect id="Rectangle_3682" data-name="Rectangle 3682" width="64.208" height="209.662" transform="translate(508.66 643.552)" fill="#ecf7ff"/>
      <rect id="Rectangle_3683" data-name="Rectangle 3683" width="64.208" height="209.662" transform="translate(415.528 550.186)" fill="#ecf7ff"/>
      <rect id="Rectangle_3684" data-name="Rectangle 3684" width="64.208" height="64.208" transform="translate(508.66 456.819)" fill="#ecf7ff"/>
      <rect id="Rectangle_3685" data-name="Rectangle 3685" width="64.208" height="209.662" transform="translate(508.66 218)" fill="#ecf7ff"/>
      <rect id="Rectangle_3686" data-name="Rectangle 3686" width="64.208" height="209.662" transform="translate(508.66 1214.511)" fill="#ecf7ff"/>
      <rect id="Rectangle_3687" data-name="Rectangle 3687" width="64.208" height="209.662" transform="translate(508.66 1546.315)" fill="#ecf7ff"/>
      <rect id="Rectangle_3688" data-name="Rectangle 3688" width="64.208" height="209.662" transform="translate(508.66 1878.118)" fill="#ecf7ff"/>
      <rect id="Rectangle_3689" data-name="Rectangle 3689" width="64.208" height="64.208" transform="translate(415.528 882.371)" fill="#ecf7ff"/>
      <rect id="Rectangle_3690" data-name="Rectangle 3690" width="64.208" height="209.662" transform="translate(415.528 975.737)" fill="#ecf7ff"/>
      <rect id="Rectangle_3691" data-name="Rectangle 3691" width="64.208" height="64.208" transform="translate(508.66 1121.191)" fill="#ecf7ff"/>
      <rect id="Rectangle_3692" data-name="Rectangle 3692" width="64.208" height="64.208" transform="translate(508.66 1452.994)" fill="#ecf7ff"/>
      <rect id="Rectangle_3693" data-name="Rectangle 3693" width="64.208" height="64.208" transform="translate(508.66 1784.797)" fill="#ecf7ff"/>
      <rect id="Rectangle_3694" data-name="Rectangle 3694" width="64.208" height="64.208" transform="translate(508.66 2116.6)" fill="#ecf7ff"/>
      <rect id="Rectangle_3695" data-name="Rectangle 3695" width="64.208" height="209.662" transform="translate(508.66 882.371)" fill="#ecf7ff"/>
      <rect id="Rectangle_3696" data-name="Rectangle 3696" width="64.208" height="64.208" transform="translate(415.528 789.005)" fill="#ecf7ff"/>
      <rect id="Rectangle_3697" data-name="Rectangle 3697" width="64.208" height="64.208" transform="translate(601.792 218)" fill="#ecf7ff"/>
      <rect id="Rectangle_3698" data-name="Rectangle 3698" width="64.208" height="64.208" transform="translate(601.792 1214.511)" fill="#ecf7ff"/>
      <rect id="Rectangle_3699" data-name="Rectangle 3699" width="64.208" height="64.208" transform="translate(601.792 1546.315)" fill="#ecf7ff"/>
      <rect id="Rectangle_3700" data-name="Rectangle 3700" width="64.208" height="64.208" transform="translate(601.792 1878.118)" fill="#ecf7ff"/>
      <rect id="Rectangle_3701" data-name="Rectangle 3701" width="64.208" height="209.662" transform="translate(601.792 311.366)" fill="#ecf7ff"/>
      <rect id="Rectangle_3702" data-name="Rectangle 3702" width="64.208" height="209.662" transform="translate(601.792 1307.878)" fill="#ecf7ff"/>
      <rect id="Rectangle_3703" data-name="Rectangle 3703" width="64.208" height="209.662" transform="translate(601.792 1639.681)" fill="#ecf7ff"/>
      <rect id="Rectangle_3704" data-name="Rectangle 3704" width="64.208" height="209.662" transform="translate(601.792 1971.484)" fill="#ecf7ff"/>
      <rect id="Rectangle_3705" data-name="Rectangle 3705" width="64.208" height="64.208" transform="translate(694.924 550.186)" fill="#ecf7ff"/>
      <rect id="Rectangle_3706" data-name="Rectangle 3706" width="64.208" height="209.662" transform="translate(694.924 643.552)" fill="#ecf7ff"/>
      <rect id="Rectangle_3707" data-name="Rectangle 3707" width="64.208" height="209.662" transform="translate(601.792 550.186)" fill="#ecf7ff"/>
      <rect id="Rectangle_3708" data-name="Rectangle 3708" width="64.208" height="64.208" transform="translate(694.924 456.819)" fill="#ecf7ff"/>
      <rect id="Rectangle_3709" data-name="Rectangle 3709" width="64.208" height="209.662" transform="translate(694.924 218)" fill="#ecf7ff"/>
      <rect id="Rectangle_3710" data-name="Rectangle 3710" width="64.208" height="209.662" transform="translate(694.924 1214.511)" fill="#ecf7ff"/>
      <rect id="Rectangle_3711" data-name="Rectangle 3711" width="64.208" height="209.662" transform="translate(694.924 1546.315)" fill="#ecf7ff"/>
      <rect id="Rectangle_3712" data-name="Rectangle 3712" width="64.208" height="209.662" transform="translate(694.924 1878.118)" fill="#ecf7ff"/>
      <rect id="Rectangle_3713" data-name="Rectangle 3713" width="64.208" height="64.208" transform="translate(601.792 882.371)" fill="#ecf7ff"/>
      <rect id="Rectangle_3714" data-name="Rectangle 3714" width="64.208" height="209.662" transform="translate(601.792 975.737)" fill="#ecf7ff"/>
      <rect id="Rectangle_3715" data-name="Rectangle 3715" width="64.208" height="64.208" transform="translate(694.924 1121.191)" fill="#ecf7ff"/>
      <rect id="Rectangle_3716" data-name="Rectangle 3716" width="64.208" height="64.208" transform="translate(694.924 1452.994)" fill="#ecf7ff"/>
      <rect id="Rectangle_3717" data-name="Rectangle 3717" width="64.208" height="64.208" transform="translate(694.924 1784.797)" fill="#ecf7ff"/>
      <rect id="Rectangle_3718" data-name="Rectangle 3718" width="64.208" height="64.208" transform="translate(694.924 2116.6)" fill="#ecf7ff"/>
      <rect id="Rectangle_3719" data-name="Rectangle 3719" width="64.208" height="209.662" transform="translate(694.924 882.371)" fill="#ecf7ff"/>
      <rect id="Rectangle_3720" data-name="Rectangle 3720" width="64.208" height="64.208" transform="translate(601.792 789.005)" fill="#ecf7ff"/>
      <rect id="Rectangle_3721" data-name="Rectangle 3721" width="64.208" height="64.208" transform="translate(788.3 218)" fill="#ecf7ff"/>
      <rect id="Rectangle_3722" data-name="Rectangle 3722" width="64.208" height="64.208" transform="translate(788.3 1214.511)" fill="#ecf7ff"/>
      <rect id="Rectangle_3723" data-name="Rectangle 3723" width="64.208" height="64.208" transform="translate(788.3 1546.315)" fill="#ecf7ff"/>
      <rect id="Rectangle_3724" data-name="Rectangle 3724" width="64.208" height="64.208" transform="translate(788.3 1878.118)" fill="#ecf7ff"/>
      <rect id="Rectangle_3725" data-name="Rectangle 3725" width="64.208" height="209.662" transform="translate(788.3 311.366)" fill="#ecf7ff"/>
      <rect id="Rectangle_3726" data-name="Rectangle 3726" width="64.208" height="209.662" transform="translate(788.3 1307.878)" fill="#ecf7ff"/>
      <rect id="Rectangle_3727" data-name="Rectangle 3727" width="64.208" height="209.662" transform="translate(788.3 1639.681)" fill="#ecf7ff"/>
      <rect id="Rectangle_3728" data-name="Rectangle 3728" width="64.208" height="209.662" transform="translate(788.3 1971.484)" fill="#ecf7ff"/>
      <rect id="Rectangle_3729" data-name="Rectangle 3729" width="64.208" height="64.208" transform="translate(881.432 550.186)" fill="#ecf7ff"/>
      <rect id="Rectangle_3730" data-name="Rectangle 3730" width="64.208" height="209.662" transform="translate(881.432 643.552)" fill="#ecf7ff"/>
      <rect id="Rectangle_3731" data-name="Rectangle 3731" width="64.208" height="209.662" transform="translate(788.3 550.186)" fill="#ecf7ff"/>
      <rect id="Rectangle_3732" data-name="Rectangle 3732" width="64.208" height="64.208" transform="translate(881.432 456.819)" fill="#ecf7ff"/>
      <rect id="Rectangle_3733" data-name="Rectangle 3733" width="64.208" height="209.662" transform="translate(881.432 218)" fill="#ecf7ff"/>
      <rect id="Rectangle_3734" data-name="Rectangle 3734" width="64.208" height="209.662" transform="translate(881.432 1214.511)" fill="#ecf7ff"/>
      <rect id="Rectangle_3735" data-name="Rectangle 3735" width="64.208" height="209.662" transform="translate(881.432 1546.315)" fill="#ecf7ff"/>
      <rect id="Rectangle_3736" data-name="Rectangle 3736" width="64.208" height="209.662" transform="translate(881.432 1878.118)" fill="#ecf7ff"/>
      <rect id="Rectangle_3737" data-name="Rectangle 3737" width="64.208" height="64.208" transform="translate(788.3 882.371)" fill="#ecf7ff"/>
      <rect id="Rectangle_3738" data-name="Rectangle 3738" width="64.208" height="209.662" transform="translate(788.3 975.737)" fill="#ecf7ff"/>
      <rect id="Rectangle_3739" data-name="Rectangle 3739" width="64.208" height="64.208" transform="translate(881.432 1121.191)" fill="#ecf7ff"/>
      <rect id="Rectangle_3740" data-name="Rectangle 3740" width="64.208" height="64.208" transform="translate(881.432 1452.994)" fill="#ecf7ff"/>
      <rect id="Rectangle_3741" data-name="Rectangle 3741" width="64.208" height="64.208" transform="translate(881.432 1784.797)" fill="#ecf7ff"/>
      <rect id="Rectangle_3742" data-name="Rectangle 3742" width="64.208" height="64.208" transform="translate(881.432 2116.6)" fill="#ecf7ff"/>
      <rect id="Rectangle_3743" data-name="Rectangle 3743" width="64.208" height="209.662" transform="translate(881.432 882.371)" fill="#ecf7ff"/>
      <rect id="Rectangle_3744" data-name="Rectangle 3744" width="64.208" height="64.208" transform="translate(788.3 789.005)" fill="#ecf7ff"/>
      <rect id="Rectangle_3745" data-name="Rectangle 3745" width="64.208" height="64.208" transform="translate(974.807 218)" fill="#ecf7ff"/>
      <rect id="Rectangle_3746" data-name="Rectangle 3746" width="64.208" height="64.208" transform="translate(974.807 1214.511)" fill="#ecf7ff"/>
      <rect id="Rectangle_3747" data-name="Rectangle 3747" width="64.208" height="64.208" transform="translate(974.807 1546.315)" fill="#ecf7ff"/>
      <rect id="Rectangle_3748" data-name="Rectangle 3748" width="64.208" height="64.208" transform="translate(974.807 1878.118)" fill="#ecf7ff"/>
      <rect id="Rectangle_3749" data-name="Rectangle 3749" width="64.208" height="209.662" transform="translate(974.807 311.366)" fill="#ecf7ff"/>
      <rect id="Rectangle_3750" data-name="Rectangle 3750" width="64.208" height="209.662" transform="translate(974.807 1307.878)" fill="#ecf7ff"/>
      <rect id="Rectangle_3751" data-name="Rectangle 3751" width="64.208" height="209.662" transform="translate(974.807 1639.681)" fill="#ecf7ff"/>
      <rect id="Rectangle_3752" data-name="Rectangle 3752" width="64.208" height="209.662" transform="translate(974.807 1971.484)" fill="#ecf7ff"/>
      <rect id="Rectangle_3753" data-name="Rectangle 3753" width="64.208" height="64.208" transform="translate(1067.939 550.186)" fill="#ecf7ff"/>
      <rect id="Rectangle_3754" data-name="Rectangle 3754" width="64.208" height="209.662" transform="translate(1067.939 643.552)" fill="#ecf7ff"/>
      <rect id="Rectangle_3755" data-name="Rectangle 3755" width="64.208" height="209.662" transform="translate(974.807 550.186)" fill="#ecf7ff"/>
      <rect id="Rectangle_3756" data-name="Rectangle 3756" width="64.208" height="64.208" transform="translate(1067.939 456.819)" fill="#ecf7ff"/>
      <rect id="Rectangle_3757" data-name="Rectangle 3757" width="64.208" height="209.662" transform="translate(1067.939 218)" fill="#ecf7ff"/>
      <rect id="Rectangle_3758" data-name="Rectangle 3758" width="64.208" height="209.662" transform="translate(1067.939 1214.511)" fill="#ecf7ff"/>
      <rect id="Rectangle_3759" data-name="Rectangle 3759" width="64.208" height="209.662" transform="translate(1067.939 1546.315)" fill="#ecf7ff"/>
      <rect id="Rectangle_3760" data-name="Rectangle 3760" width="64.208" height="209.662" transform="translate(1067.939 1878.118)" fill="#ecf7ff"/>
      <rect id="Rectangle_3761" data-name="Rectangle 3761" width="64.208" height="64.208" transform="translate(974.807 882.371)" fill="#ecf7ff"/>
      <rect id="Rectangle_3762" data-name="Rectangle 3762" width="64.208" height="209.662" transform="translate(974.807 975.737)" fill="#ecf7ff"/>
      <rect id="Rectangle_3763" data-name="Rectangle 3763" width="64.208" height="64.208" transform="translate(1067.939 1121.191)" fill="#ecf7ff"/>
      <rect id="Rectangle_3764" data-name="Rectangle 3764" width="64.208" height="64.208" transform="translate(1067.939 1452.994)" fill="#ecf7ff"/>
      <rect id="Rectangle_3765" data-name="Rectangle 3765" width="64.208" height="64.208" transform="translate(1067.939 1784.797)" fill="#ecf7ff"/>
      <rect id="Rectangle_3766" data-name="Rectangle 3766" width="64.208" height="64.208" transform="translate(1067.939 2116.6)" fill="#ecf7ff"/>
      <rect id="Rectangle_3767" data-name="Rectangle 3767" width="64.208" height="209.662" transform="translate(1067.939 882.371)" fill="#ecf7ff"/>
      <rect id="Rectangle_3768" data-name="Rectangle 3768" width="64.208" height="64.208" transform="translate(974.807 789.005)" fill="#ecf7ff"/>
      <rect id="Rectangle_3769" data-name="Rectangle 3769" width="64.208" height="64.208" transform="translate(1161.314 218)" fill="#ecf7ff"/>
      <rect id="Rectangle_3770" data-name="Rectangle 3770" width="64.208" height="64.208" transform="translate(1161.314 1214.511)" fill="#ecf7ff"/>
      <rect id="Rectangle_3771" data-name="Rectangle 3771" width="64.208" height="64.208" transform="translate(1161.314 1546.315)" fill="#ecf7ff"/>
      <rect id="Rectangle_3772" data-name="Rectangle 3772" width="64.208" height="64.208" transform="translate(1161.314 1878.118)" fill="#ecf7ff"/>
      <rect id="Rectangle_3773" data-name="Rectangle 3773" width="64.208" height="209.662" transform="translate(1161.314 311.366)" fill="#ecf7ff"/>
      <rect id="Rectangle_3774" data-name="Rectangle 3774" width="64.208" height="209.662" transform="translate(1161.314 1307.878)" fill="#ecf7ff"/>
      <rect id="Rectangle_3775" data-name="Rectangle 3775" width="64.208" height="209.662" transform="translate(1161.314 1639.681)" fill="#ecf7ff"/>
      <rect id="Rectangle_3776" data-name="Rectangle 3776" width="64.208" height="209.662" transform="translate(1161.314 1971.484)" fill="#ecf7ff"/>
      <rect id="Rectangle_3777" data-name="Rectangle 3777" width="64.208" height="64.208" transform="translate(1254.446 550.186)" fill="#ecf7ff"/>
      <rect id="Rectangle_3778" data-name="Rectangle 3778" width="64.208" height="209.662" transform="translate(1254.446 643.552)" fill="#ecf7ff"/>
      <rect id="Rectangle_3779" data-name="Rectangle 3779" width="64.208" height="209.662" transform="translate(1161.314 550.186)" fill="#ecf7ff"/>
      <rect id="Rectangle_3780" data-name="Rectangle 3780" width="64.208" height="64.208" transform="translate(1254.446 456.819)" fill="#ecf7ff"/>
      <rect id="Rectangle_3781" data-name="Rectangle 3781" width="64.208" height="209.662" transform="translate(1254.446 218)" fill="#ecf7ff"/>
      <rect id="Rectangle_3782" data-name="Rectangle 3782" width="64.208" height="209.662" transform="translate(1254.446 1214.511)" fill="#ecf7ff"/>
      <rect id="Rectangle_3783" data-name="Rectangle 3783" width="64.208" height="209.662" transform="translate(1254.446 1546.315)" fill="#ecf7ff"/>
      <rect id="Rectangle_3784" data-name="Rectangle 3784" width="64.208" height="209.662" transform="translate(1254.446 1878.118)" fill="#ecf7ff"/>
      <rect id="Rectangle_3785" data-name="Rectangle 3785" width="64.208" height="64.208" transform="translate(1161.314 882.371)" fill="#ecf7ff"/>
      <rect id="Rectangle_3786" data-name="Rectangle 3786" width="64.208" height="209.662" transform="translate(1161.314 975.737)" fill="#ecf7ff"/>
      <rect id="Rectangle_3787" data-name="Rectangle 3787" width="64.208" height="64.208" transform="translate(1254.446 1121.191)" fill="#ecf7ff"/>
      <rect id="Rectangle_3788" data-name="Rectangle 3788" width="64.208" height="64.208" transform="translate(1254.446 1452.994)" fill="#ecf7ff"/>
      <rect id="Rectangle_3789" data-name="Rectangle 3789" width="64.208" height="64.208" transform="translate(1254.446 1784.797)" fill="#ecf7ff"/>
      <rect id="Rectangle_3790" data-name="Rectangle 3790" width="64.208" height="64.208" transform="translate(1254.446 2116.6)" fill="#ecf7ff"/>
      <rect id="Rectangle_3791" data-name="Rectangle 3791" width="64.208" height="209.662" transform="translate(1254.446 882.371)" fill="#ecf7ff"/>
      <rect id="Rectangle_3792" data-name="Rectangle 3792" width="64.208" height="64.208" transform="translate(1161.314 789.005)" fill="#ecf7ff"/>
      <rect id="Rectangle_3793" data-name="Rectangle 3793" width="64.208" height="64.208" transform="translate(1347.821 218)" fill="#ecf7ff"/>
      <rect id="Rectangle_3794" data-name="Rectangle 3794" width="64.208" height="64.208" transform="translate(1347.821 1214.511)" fill="#ecf7ff"/>
      <rect id="Rectangle_3795" data-name="Rectangle 3795" width="64.208" height="64.208" transform="translate(1347.821 1546.315)" fill="#ecf7ff"/>
      <rect id="Rectangle_3796" data-name="Rectangle 3796" width="64.208" height="64.208" transform="translate(1347.821 1878.118)" fill="#ecf7ff"/>
      <rect id="Rectangle_3797" data-name="Rectangle 3797" width="64.208" height="209.662" transform="translate(1347.821 311.366)" fill="#ecf7ff"/>
      <rect id="Rectangle_3798" data-name="Rectangle 3798" width="64.208" height="209.662" transform="translate(1347.821 1307.878)" fill="#ecf7ff"/>
      <rect id="Rectangle_3799" data-name="Rectangle 3799" width="64.208" height="209.662" transform="translate(1347.821 1639.681)" fill="#ecf7ff"/>
      <rect id="Rectangle_3800" data-name="Rectangle 3800" width="64.208" height="209.662" transform="translate(1347.821 1971.484)" fill="#ecf7ff"/>
      <rect id="Rectangle_3801" data-name="Rectangle 3801" width="64.208" height="64.208" transform="translate(1440.953 550.186)" fill="#ecf7ff"/>
      <rect id="Rectangle_3802" data-name="Rectangle 3802" width="64.208" height="209.662" transform="translate(1440.953 643.552)" fill="#ecf7ff"/>
      <rect id="Rectangle_3803" data-name="Rectangle 3803" width="64.208" height="209.662" transform="translate(1347.821 550.186)" fill="#ecf7ff"/>
      <rect id="Rectangle_3804" data-name="Rectangle 3804" width="64.208" height="64.208" transform="translate(1440.953 456.819)" fill="#ecf7ff"/>
      <rect id="Rectangle_3805" data-name="Rectangle 3805" width="64.208" height="209.662" transform="translate(1440.953 218)" fill="#ecf7ff"/>
      <rect id="Rectangle_3806" data-name="Rectangle 3806" width="64.208" height="209.662" transform="translate(1440.953 1214.511)" fill="#ecf7ff"/>
      <rect id="Rectangle_3807" data-name="Rectangle 3807" width="64.208" height="209.662" transform="translate(1440.953 1546.315)" fill="#ecf7ff"/>
      <rect id="Rectangle_3808" data-name="Rectangle 3808" width="64.208" height="209.662" transform="translate(1440.953 1878.118)" fill="#ecf7ff"/>
      <rect id="Rectangle_3809" data-name="Rectangle 3809" width="64.208" height="64.208" transform="translate(1347.821 882.371)" fill="#ecf7ff"/>
      <rect id="Rectangle_3810" data-name="Rectangle 3810" width="64.208" height="209.662" transform="translate(1347.821 975.737)" fill="#ecf7ff"/>
      <rect id="Rectangle_3811" data-name="Rectangle 3811" width="64.208" height="64.208" transform="translate(1440.953 1121.191)" fill="#ecf7ff"/>
      <rect id="Rectangle_3812" data-name="Rectangle 3812" width="64.208" height="64.208" transform="translate(1440.953 1452.994)" fill="#ecf7ff"/>
      <rect id="Rectangle_3813" data-name="Rectangle 3813" width="64.208" height="64.208" transform="translate(1440.953 1784.797)" fill="#ecf7ff"/>
      <rect id="Rectangle_3814" data-name="Rectangle 3814" width="64.208" height="64.208" transform="translate(1440.953 2116.6)" fill="#ecf7ff"/>
      <rect id="Rectangle_3815" data-name="Rectangle 3815" width="64.208" height="209.662" transform="translate(1440.953 882.371)" fill="#ecf7ff"/>
      <rect id="Rectangle_3816" data-name="Rectangle 3816" width="64.208" height="64.208" transform="translate(1347.821 789.005)" fill="#ecf7ff"/>
      <rect id="Rectangle_3817" data-name="Rectangle 3817" width="64.208" height="64.208" transform="translate(1534.447 218)" fill="#ecf7ff"/>
      <rect id="Rectangle_3818" data-name="Rectangle 3818" width="64.208" height="64.208" transform="translate(1534.447 1214.511)" fill="#ecf7ff"/>
      <rect id="Rectangle_3819" data-name="Rectangle 3819" width="64.208" height="64.208" transform="translate(1534.447 1546.315)" fill="#ecf7ff"/>
      <rect id="Rectangle_3820" data-name="Rectangle 3820" width="64.208" height="64.208" transform="translate(1534.447 1878.118)" fill="#ecf7ff"/>
      <rect id="Rectangle_3821" data-name="Rectangle 3821" width="64.208" height="209.662" transform="translate(1534.447 311.366)" fill="#ecf7ff"/>
      <rect id="Rectangle_3822" data-name="Rectangle 3822" width="64.208" height="209.662" transform="translate(1534.447 1307.878)" fill="#ecf7ff"/>
      <rect id="Rectangle_3823" data-name="Rectangle 3823" width="64.208" height="209.662" transform="translate(1534.447 1639.681)" fill="#ecf7ff"/>
      <rect id="Rectangle_3824" data-name="Rectangle 3824" width="64.208" height="209.662" transform="translate(1534.447 1971.484)" fill="#ecf7ff"/>
      <rect id="Rectangle_3825" data-name="Rectangle 3825" width="64.208" height="64.208" transform="translate(1627.579 550.186)" fill="#ecf7ff"/>
      <rect id="Rectangle_3826" data-name="Rectangle 3826" width="64.208" height="209.662" transform="translate(1627.579 643.552)" fill="#ecf7ff"/>
      <rect id="Rectangle_3827" data-name="Rectangle 3827" width="64.208" height="209.662" transform="translate(1534.447 550.186)" fill="#ecf7ff"/>
      <rect id="Rectangle_3828" data-name="Rectangle 3828" width="64.208" height="64.208" transform="translate(1627.579 456.819)" fill="#ecf7ff"/>
      <rect id="Rectangle_3829" data-name="Rectangle 3829" width="64.208" height="209.662" transform="translate(1627.579 218)" fill="#ecf7ff"/>
      <rect id="Rectangle_3830" data-name="Rectangle 3830" width="64.208" height="209.662" transform="translate(1627.579 1214.511)" fill="#ecf7ff"/>
      <rect id="Rectangle_3831" data-name="Rectangle 3831" width="64.208" height="209.662" transform="translate(1627.579 1546.315)" fill="#ecf7ff"/>
      <rect id="Rectangle_3832" data-name="Rectangle 3832" width="64.208" height="209.662" transform="translate(1627.579 1878.118)" fill="#ecf7ff"/>
      <rect id="Rectangle_3833" data-name="Rectangle 3833" width="64.208" height="64.208" transform="translate(1534.447 882.371)" fill="#ecf7ff"/>
      <rect id="Rectangle_3834" data-name="Rectangle 3834" width="64.208" height="209.662" transform="translate(1534.447 975.737)" fill="#ecf7ff"/>
      <rect id="Rectangle_3835" data-name="Rectangle 3835" width="64.208" height="64.208" transform="translate(1627.579 1121.191)" fill="#ecf7ff"/>
      <rect id="Rectangle_3836" data-name="Rectangle 3836" width="64.208" height="64.208" transform="translate(1627.579 1452.994)" fill="#ecf7ff"/>
      <rect id="Rectangle_3837" data-name="Rectangle 3837" width="64.208" height="64.208" transform="translate(1627.579 1784.797)" fill="#ecf7ff"/>
      <rect id="Rectangle_3838" data-name="Rectangle 3838" width="64.208" height="64.208" transform="translate(1627.579 2116.6)" fill="#ecf7ff"/>
      <rect id="Rectangle_3839" data-name="Rectangle 3839" width="64.208" height="209.662" transform="translate(1627.579 882.371)" fill="#ecf7ff"/>
      <rect id="Rectangle_3840" data-name="Rectangle 3840" width="64.208" height="64.208" transform="translate(1534.447 789.005)" fill="#ecf7ff"/>
      <rect id="Rectangle_3841" data-name="Rectangle 3841" width="64.208" height="64.208" transform="translate(1720.836 218)" fill="#ecf7ff"/>
      <rect id="Rectangle_3842" data-name="Rectangle 3842" width="64.208" height="64.208" transform="translate(1720.836 1214.511)" fill="#ecf7ff"/>
      <rect id="Rectangle_3843" data-name="Rectangle 3843" width="64.208" height="64.208" transform="translate(1720.836 1546.315)" fill="#ecf7ff"/>
      <rect id="Rectangle_3844" data-name="Rectangle 3844" width="64.208" height="64.208" transform="translate(1720.836 1878.118)" fill="#ecf7ff"/>
      <rect id="Rectangle_3845" data-name="Rectangle 3845" width="64.208" height="209.662" transform="translate(1720.836 311.366)" fill="#ecf7ff"/>
      <rect id="Rectangle_3846" data-name="Rectangle 3846" width="64.208" height="209.662" transform="translate(1720.836 1307.878)" fill="#ecf7ff"/>
      <rect id="Rectangle_3847" data-name="Rectangle 3847" width="64.208" height="209.662" transform="translate(1720.836 1639.681)" fill="#ecf7ff"/>
      <rect id="Rectangle_3848" data-name="Rectangle 3848" width="64.208" height="209.662" transform="translate(1720.836 1971.484)" fill="#ecf7ff"/>
      <rect id="Rectangle_3849" data-name="Rectangle 3849" width="64.208" height="64.208" transform="translate(1813.968 550.186)" fill="#ecf7ff"/>
      <rect id="Rectangle_3850" data-name="Rectangle 3850" width="64.208" height="209.662" transform="translate(1813.968 643.552)" fill="#ecf7ff"/>
      <rect id="Rectangle_3851" data-name="Rectangle 3851" width="64.208" height="209.662" transform="translate(1720.836 550.186)" fill="#ecf7ff"/>
      <rect id="Rectangle_3852" data-name="Rectangle 3852" width="64.208" height="64.208" transform="translate(1813.968 456.819)" fill="#ecf7ff"/>
      <rect id="Rectangle_3853" data-name="Rectangle 3853" width="64.208" height="209.662" transform="translate(1813.968 218)" fill="#ecf7ff"/>
      <rect id="Rectangle_3854" data-name="Rectangle 3854" width="64.208" height="209.662" transform="translate(1813.968 1214.511)" fill="#ecf7ff"/>
      <rect id="Rectangle_3855" data-name="Rectangle 3855" width="64.208" height="209.662" transform="translate(1813.968 1546.315)" fill="#ecf7ff"/>
      <rect id="Rectangle_3856" data-name="Rectangle 3856" width="64.208" height="209.662" transform="translate(1813.968 1878.118)" fill="#ecf7ff"/>
      <rect id="Rectangle_3857" data-name="Rectangle 3857" width="64.208" height="64.208" transform="translate(1720.836 882.371)" fill="#ecf7ff"/>
      <rect id="Rectangle_3858" data-name="Rectangle 3858" width="64.208" height="209.662" transform="translate(1720.836 975.737)" fill="#ecf7ff"/>
      <rect id="Rectangle_3859" data-name="Rectangle 3859" width="64.208" height="64.208" transform="translate(1813.968 1121.191)" fill="#ecf7ff"/>
      <rect id="Rectangle_3860" data-name="Rectangle 3860" width="64.208" height="64.208" transform="translate(1813.968 1452.994)" fill="#ecf7ff"/>
      <rect id="Rectangle_3861" data-name="Rectangle 3861" width="64.208" height="64.208" transform="translate(1813.968 1784.797)" fill="#ecf7ff"/>
      <rect id="Rectangle_3862" data-name="Rectangle 3862" width="64.208" height="64.208" transform="translate(1813.968 2116.6)" fill="#ecf7ff"/>
      <rect id="Rectangle_3863" data-name="Rectangle 3863" width="64.208" height="209.662" transform="translate(1813.968 882.371)" fill="#ecf7ff"/>
      <rect id="Rectangle_3864" data-name="Rectangle 3864" width="64.208" height="64.208" transform="translate(1720.836 789.005)" fill="#ecf7ff"/>
      <rect id="Rectangle_3865" data-name="Rectangle 3865" width="64.208" height="64.208" transform="translate(1907.343 218)" fill="#ecf7ff"/>
      <rect id="Rectangle_3866" data-name="Rectangle 3866" width="64.208" height="64.208" transform="translate(1907.343 1214.511)" fill="#ecf7ff"/>
      <rect id="Rectangle_3867" data-name="Rectangle 3867" width="64.208" height="64.208" transform="translate(1907.343 1546.315)" fill="#ecf7ff"/>
      <rect id="Rectangle_3868" data-name="Rectangle 3868" width="64.208" height="64.208" transform="translate(1907.343 1878.118)" fill="#ecf7ff"/>
      <rect id="Rectangle_3869" data-name="Rectangle 3869" width="64.208" height="209.662" transform="translate(1907.343 311.366)" fill="#ecf7ff"/>
      <rect id="Rectangle_3870" data-name="Rectangle 3870" width="64.208" height="209.662" transform="translate(1907.343 1307.878)" fill="#ecf7ff"/>
      <rect id="Rectangle_3871" data-name="Rectangle 3871" width="64.208" height="209.662" transform="translate(1907.343 1639.681)" fill="#ecf7ff"/>
      <rect id="Rectangle_3872" data-name="Rectangle 3872" width="64.208" height="209.662" transform="translate(1907.343 1971.484)" fill="#ecf7ff"/>
      <rect id="Rectangle_3873" data-name="Rectangle 3873" width="64.208" height="64.208" transform="translate(2000.475 550.186)" fill="#ecf7ff"/>
      <rect id="Rectangle_3874" data-name="Rectangle 3874" width="64.208" height="209.662" transform="translate(2000.475 643.552)" fill="#ecf7ff"/>
      <rect id="Rectangle_3875" data-name="Rectangle 3875" width="64.208" height="209.662" transform="translate(1907.343 550.186)" fill="#ecf7ff"/>
      <rect id="Rectangle_3876" data-name="Rectangle 3876" width="64.208" height="64.208" transform="translate(2000.475 456.819)" fill="#ecf7ff"/>
      <rect id="Rectangle_3877" data-name="Rectangle 3877" width="64.208" height="209.662" transform="translate(2000.475 218)" fill="#ecf7ff"/>
      <rect id="Rectangle_3878" data-name="Rectangle 3878" width="64.208" height="209.662" transform="translate(2000.475 1214.511)" fill="#ecf7ff"/>
      <rect id="Rectangle_3879" data-name="Rectangle 3879" width="64.208" height="209.662" transform="translate(2000.475 1546.315)" fill="#ecf7ff"/>
      <rect id="Rectangle_3880" data-name="Rectangle 3880" width="64.208" height="209.662" transform="translate(2000.475 1878.118)" fill="#ecf7ff"/>
      <rect id="Rectangle_3881" data-name="Rectangle 3881" width="64.208" height="64.208" transform="translate(1907.343 882.371)" fill="#ecf7ff"/>
      <rect id="Rectangle_3882" data-name="Rectangle 3882" width="64.208" height="209.662" transform="translate(1907.343 975.737)" fill="#ecf7ff"/>
      <rect id="Rectangle_3883" data-name="Rectangle 3883" width="64.208" height="64.208" transform="translate(2000.475 1121.191)" fill="#ecf7ff"/>
      <rect id="Rectangle_3884" data-name="Rectangle 3884" width="64.208" height="64.208" transform="translate(2000.475 1452.994)" fill="#ecf7ff"/>
      <rect id="Rectangle_3885" data-name="Rectangle 3885" width="64.208" height="64.208" transform="translate(2000.475 1784.797)" fill="#ecf7ff"/>
      <rect id="Rectangle_3886" data-name="Rectangle 3886" width="64.208" height="64.208" transform="translate(2000.475 2116.6)" fill="#ecf7ff"/>
      <rect id="Rectangle_3887" data-name="Rectangle 3887" width="64.208" height="209.662" transform="translate(2000.475 882.371)" fill="#ecf7ff"/>
      <rect id="Rectangle_3888" data-name="Rectangle 3888" width="64.208" height="64.208" transform="translate(1907.343 789.005)" fill="#ecf7ff"/>
    </g>
  </g>
</svg>
