<svg xmlns="http://www.w3.org/2000/svg" xmlns:xlink="http://www.w3.org/1999/xlink" width="1920" height="1080" viewBox="0 0 1920 1080"><defs><clipPath id="a"><rect width="1920" height="1080" transform="translate(0 4806)" fill="#f7f7f7"/></clipPath></defs><g transform="translate(0 -4806)" clip-path="url(#a)"><g transform="translate(1099.094 4280.999)"><path d="M552.833,286.614l-31.572-31.572L418.169,358.135l31.572,31.571Z" fill="#f5f5f5"/><path d="M389.61,358.248l-31.572-31.571-31.571,31.571,31.571,31.572Z" fill="#f5f5f5"/><path d="M317.974,521.473,286.4,489.9l-31.572,31.572L286.4,553.045Z" fill="#f5f5f5"/><path d="M435.4,404.042l-31.572-31.571L300.74,475.563l31.571,31.572Z" fill="#f5f5f5"/><path d="M435.519,312.34l-31.572-31.571L372.376,312.34l31.571,31.572Z" fill="#f5f5f5"/><path d="M317.777,613.257,286.2,581.686l-31.571,31.571L286.2,644.829Z" fill="#f5f5f5"/><path d="M690.225,332.4l-31.572-31.572L627.081,332.4l31.572,31.571Z" fill="#f5f5f5"/><path d="M644.316,378.3l-31.572-31.572L509.652,449.826,541.223,481.4Z" fill="#f5f5f5"/><path d="M644.431,286.6l-31.572-31.572L509.767,358.124,541.338,389.7Z" fill="#f5f5f5"/><path d="M363.571,659.051,332,627.479,228.906,730.572l31.572,31.572Z" fill="#f5f5f5"/><path d="M481.093,449.942,449.521,418.37,417.95,449.942l31.571,31.571Z" fill="#f5f5f5"/><path d="M435.184,495.85l-31.572-31.572L300.52,567.371l31.571,31.571Z" fill="#f5f5f5"/><path d="M409.457,613.164l-31.572-31.571-31.571,31.571,31.571,31.572Z" fill="#f5f5f5"/><path d="M526.887,495.736l-31.572-31.572L392.222,567.257l31.572,31.571Z" fill="#f5f5f5"/><path d="M527,404.033,495.43,372.461l-31.571,31.572L495.43,435.6Z" fill="#f5f5f5"/><path d="M409.469,704.74,377.9,673.168,346.326,704.74,377.9,736.311Z" fill="#f5f5f5"/><path d="M853.553,260.656l-31.571-31.572L718.889,332.177l31.572,31.571Z" fill="#f5f5f5"/><path d="M781.917,423.879l-31.572-31.571-31.571,31.571,31.571,31.572Z" fill="#f5f5f5"/><path d="M736.008,469.788l-31.571-31.571L601.344,541.309l31.572,31.572Z" fill="#f5f5f5"/><path d="M736.123,378.085l-31.571-31.571L601.459,449.606l31.572,31.572Z" fill="#f5f5f5"/><path d="M827.826,377.97,796.255,346.4,764.683,377.97l31.572,31.572Z" fill="#f5f5f5"/><path d="M455.263,750.534l-31.572-31.572L320.6,822.054l31.571,31.572Z" fill="#f5f5f5"/><path d="M572.785,541.423l-31.571-31.571-31.572,31.571,31.572,31.572Z" fill="#f5f5f5"/><path d="M526.876,587.332,495.3,555.761,392.212,658.853l31.572,31.572Z" fill="#f5f5f5"/><path d="M501.149,704.648l-31.571-31.572-31.572,31.572,31.572,31.571Z" fill="#f5f5f5"/><path d="M338,867.8l-31.572-31.571L274.856,867.8l31.571,31.572Z" fill="#f5f5f5"/><path d="M618.579,587.217l-31.572-31.571L483.915,658.738l31.571,31.572Z" fill="#f5f5f5"/><path d="M618.694,495.515l-31.572-31.572-31.571,31.572,31.571,31.572Z" fill="#f5f5f5"/><path d="M501.056,796.327l-31.571-31.571-31.572,31.571L469.485,827.9Z" fill="#f5f5f5"/><path d="M827.6,561.376,796.024,529.8,692.932,632.9,724.5,664.469Z" fill="#f5f5f5"/><path d="M827.711,469.673,796.139,438.1,693.047,541.194l31.571,31.572Z" fill="#f5f5f5"/><path d="M664.373,633.011,632.8,601.439l-31.572,31.572L632.8,664.583Z" fill="#f5f5f5"/><path d="M618.464,678.92l-31.572-31.571L483.8,750.441l31.571,31.572Z" fill="#f5f5f5"/><path d="M592.737,796.236l-31.572-31.572-31.572,31.572,31.572,31.571Z" fill="#f5f5f5"/><path d="M710.167,678.8l-31.572-31.572L575.5,750.326,607.074,781.9Z" fill="#f5f5f5"/><path d="M710.282,587.1,678.71,555.53,647.138,587.1l31.572,31.571Z" fill="#f5f5f5"/><path d="M592.764,888.035l-31.571-31.571-31.572,31.571,31.572,31.572Z" fill="#f5f5f5"/><path d="M919.3,653.083l-31.571-31.571L784.639,724.6l31.572,31.572Z" fill="#f5f5f5"/><path d="M919.419,561.38l-31.572-31.571L784.754,632.9l31.572,31.572Z" fill="#f5f5f5"/><path d="M638.558,933.829l-31.571-31.571L503.894,1005.35l31.572,31.57Z" fill="#f5f5f5"/><path d="M756.08,724.719l-31.571-31.572-31.572,31.572,31.572,31.572Z" fill="#f5f5f5"/><path d="M710.171,770.628,678.6,739.057,575.507,842.149l31.572,31.572Z" fill="#f5f5f5"/><path d="M684.444,887.943l-31.571-31.572L621.3,887.943l31.572,31.571Z" fill="#f5f5f5"/><path d="M801.874,770.513,770.3,738.941,667.21,842.034l31.572,31.572Z" fill="#f5f5f5"/><path d="M801.989,678.811l-31.572-31.572-31.571,31.572,31.571,31.571Z" fill="#f5f5f5"/><path d="M684.471,979.742,652.9,948.17l-31.572,31.572L652.9,1011.31Z" fill="#f5f5f5"/><path d="M730.265,1025.54l-31.572-31.576L595.6,1097.06l31.571,31.57Z" fill="#f5f5f5"/><path d="M847.787,816.426l-31.571-31.572-31.572,31.572L816.216,848Z" fill="#f5f5f5"/><path d="M801.878,862.335l-31.571-31.571L667.214,933.856l31.572,31.572Z" fill="#f5f5f5"/><path d="M776.151,979.649,744.58,948.077l-31.572,31.572,31.572,31.571Z" fill="#f5f5f5"/><path d="M613,1142.8l-31.571-31.57-31.572,31.57,31.572,31.57Z" fill="#f5f5f5"/><path d="M893.581,862.22l-31.572-31.572L758.917,933.741l31.571,31.572Z" fill="#f5f5f5"/><path d="M776.178,1071.45l-31.571-31.57-31.572,31.57,31.572,31.57Z" fill="#f5f5f5"/><path d="M821.972,1117.24,790.4,1085.67,687.308,1188.76l31.571,31.58Z" fill="#f5f5f5"/><path d="M893.585,954.041,862.014,922.47,758.921,1025.56l31.572,31.57Z" fill="#f5f5f5"/><path d="M704.735,1326.31l-31.572-31.57-31.572,31.57,31.572,31.57Z" fill="#f5f5f5"/><path d="M821.976,1209.07l-31.571-31.58-103.093,103.1,31.572,31.57Z" fill="#f5f5f5"/><path d="M913.679,1208.95l-31.571-31.57L779.015,1280.47l31.572,31.57Z" fill="#f5f5f5"/><path d="M796.415,1326.21l-31.571-31.57-31.572,31.57,31.572,31.57Z" fill="#f5f5f5"/></g></g></svg>