<svg xmlns="http://www.w3.org/2000/svg" width="192.691" height="93.93" viewBox="0 0 192.691 93.93">
  <g id="Group_103" data-name="Group 103" transform="translate(-900.296 -1072.829)">
    <path id="Path_17" data-name="Path 17" d="M938.854,1166.658c-14.863-.153-37.69-10.511-38.536-38.668-.033-.932-.025-14.326,0-14.956,1.011-42.8,38.536-40.134,38.536-40.134s3.581.008,5.44,0c0,0,37.525-2.669,38.536,40.134.025.628.033,14.022,0,14.956-.844,28.058-23.518,38.443-38.379,38.666Zm-21.863-38.668c0,19.081,21.863,21.86,21.863,21.86H944.3s21.859-2.781,21.859-21.86v-14.956s-2.434-22.316-21.859-22.568c-1.183-.017-2.274-.033-3.279-.044-.68.017-1.4.033-2.163.044-19.424.252-21.863,22.568-21.863,22.568Z" transform="translate(0 0.035)" fill="#0077ed"/>
    <path id="Path_18" data-name="Path 18" d="M947.026,1149.85h34.066s21.861-2.781,21.861-21.86v-14.956s-2.438-22.316-21.861-22.568-14.414,0-14.414,0v50.88H947.026V1072.9h34.066s37.523-2.667,38.536,40.134c.025.628.031,14.022,0,14.956-.848,28.155-23.675,38.519-38.536,38.668s-34.066,0-34.066,0Z" transform="translate(43.776 0.035)" fill="#0077ed"/>
    <rect id="Rectangle_2267" data-name="Rectangle 2267" width="21.134" height="64.083" transform="translate(1071.853 1102.143)" fill="#0077ed"/>
    <rect id="Rectangle_2268" data-name="Rectangle 2268" width="21.134" height="20.452" transform="translate(1071.853 1072.829)" fill="#0077ed"/>
  </g>
</svg>
