<svg xmlns="http://www.w3.org/2000/svg" width="179.724" height="72.292" viewBox="0 0 179.724 72.292">
  <g id="Group_112" data-name="Group 112" transform="translate(-244.276 -542)">
    <g id="Group_111" data-name="Group 111" transform="translate(244.276 542.292)">
      <g id="Group_21" data-name="Group 21" transform="translate(0 57.266)">
        <path id="Path_6" data-name="Path 6" d="M86.053,196.157h7.107V197.7H84.081V183.11h1.972Z" transform="translate(-84.081 -182.967)" fill="#fff"/>
        <path id="Path_7" data-name="Path 7" d="M139.787,193.76H134.3l-1.3,3.758h-2.012l5.255-14.591h1.692l5.145,14.591h-2.012Zm-4.915-1.653h4.354l-2.122-6.263h-.06Z" transform="translate(-111.234 -182.856)" fill="#fff"/>
        <path id="Path_8" data-name="Path 8" d="M191.566,197.339V182.748h4.755a5.759,5.759,0,0,1,3.573.987,3.494,3.494,0,0,1,1.292,2.962,2.681,2.681,0,0,1-.581,1.689,3.648,3.648,0,0,1-1.541,1.137,3.39,3.39,0,0,1,2.267,1.242,3.808,3.808,0,0,1,.836,2.455,3.717,3.717,0,0,1-1.3,3.062,5.428,5.428,0,0,1-3.523,1.057Zm1.972-8.388h3.193a2.619,2.619,0,0,0,1.791-.606,2.441,2.441,0,0,0-.055-3.458,3.41,3.41,0,0,0-2.147-.586h-2.783Zm0,1.543v5.3h3.8a3.039,3.039,0,0,0,2.1-.666,2.4,2.4,0,0,0,.746-1.889,2.607,2.607,0,0,0-.761-1.954,2.99,2.99,0,0,0-2.052-.792h-3.833Z" transform="translate(-149.291 -182.748)" fill="#fff"/>
      </g>
      <g id="Group_14" data-name="Group 14" transform="translate(0)">
        <rect id="Rectangle_5" data-name="Rectangle 5" width="10.105" height="10.116" fill="#0077e0"/>
        <rect id="Rectangle_6" data-name="Rectangle 6" width="10.105" height="33.033" transform="translate(0 14.71)" fill="#0077e0"/>
        <path id="Path_9" data-name="Path 9" d="M158.951,59.947a19.817,19.817,0,0,0-9.468-13.686c-3.3-2.133-9.454-3.288-12.4-3.288H121.176V77.721h10.142V51.291h6.523c1.388,0,5.82.686,8.15,2.972,2.5,2.446,4.292,5.684,4.292,12.613,0,6.021-1.712,9.683-4.207,12.129-2.331,2.286-6.847,3.33-8.235,3.33H121.176v8.381h10.142c1.94,0,11.777.7,19.349-4.346C159.55,80.446,160.564,67.975,158.951,59.947Z" transform="translate(-106.52 -42.973)" fill="#0077e0"/>
      </g>
    </g>
    <rect id="Rectangle_4594" data-name="Rectangle 4594" width="2" height="72" transform="translate(313 542)" fill="#0077e0"/>
    <text id="Innovation" transform="translate(323 558)" fill="#fff" font-size="17" font-family="-apple-system, BlinkMacSystemFont, Segoe UI, Roboto-Regular, Roboto"><tspan x="0" y="0">Innovation</tspan></text>
    <text id="Development" transform="translate(323 584)" fill="#fff" font-size="17" font-family="-apple-system, BlinkMacSystemFont, Segoe UI, Roboto-Regular, Roboto"><tspan x="0" y="0">Development</tspan></text>
    <text id="Lab" transform="translate(323 610)" fill="#fff" font-size="17" font-family="-apple-system, BlinkMacSystemFont, Segoe UI, Roboto-Regular, Roboto"><tspan x="0" y="0">Lab</tspan></text>
  </g>
</svg>
