<svg xmlns="http://www.w3.org/2000/svg" xmlns:xlink="http://www.w3.org/1999/xlink" width="223.644" height="64" viewBox="0 0 223.644 64">
  <defs>
    <clipPath id="clip-path">
      <rect id="Rectangle_4617" data-name="Rectangle 4617" width="82.515" height="64" fill="#fff"/>
    </clipPath>
    <clipPath id="clip-path-2">
      <rect id="Rectangle_4614" data-name="Rectangle 4614" width="82.515" height="23.044" fill="#fff"/>
    </clipPath>
    <clipPath id="clip-path-3">
      <rect id="Rectangle_4615" data-name="Rectangle 4615" width="48.542" height="23.043" fill="#fff"/>
    </clipPath>
    <clipPath id="clip-path-4">
      <rect id="Rectangle_4616" data-name="Rectangle 4616" width="80.613" height="23.043" fill="#fff"/>
    </clipPath>
  </defs>
  <g id="Group_129" data-name="Group 129" transform="translate(-56.458 -116.592)">
    <path id="Path_567" data-name="Path 567" d="M79.982,174.139c-9.066-.091-22.993-6.3-23.51-23.182-.02-.559-.016-8.589,0-8.966.616-25.662,23.51-24.063,23.51-24.063s2.185,0,3.32,0c0,0,22.893-1.6,23.511,24.062.015.376.02,8.407,0,8.967C106.3,167.778,92.464,174,83.4,174.137ZM66.645,150.957c0,11.439,13.337,13.106,13.337,13.106H83.3s13.337-1.668,13.337-13.106v-8.966S95.153,128.611,83.3,128.46l-2-.027q-.624.018-1.322.027c-11.851.151-13.337,13.531-13.337,13.531Z" fill="#fff"/>
    <path id="Path_568" data-name="Path 568" d="M111.677,164.064H132.46S145.8,162.4,145.8,150.958v-8.966s-1.487-13.38-13.338-13.531-8.793,0-8.793,0v30.505h-11.99V117.929H132.46s22.894-1.6,23.511,24.064c.016.375.02,8.406,0,8.966-.517,16.879-14.444,23.092-23.511,23.182s-20.783,0-20.783,0Z" transform="translate(-1.047)" fill="#fff"/>
    <rect id="Rectangle_4612" data-name="Rectangle 4612" width="12.894" height="39.096" transform="translate(159.432 134.758)" fill="#fff"/>
    <rect id="Rectangle_4613" data-name="Rectangle 4613" width="12.894" height="12.478" transform="translate(159.432 117.866)" fill="#fff"/>
    <g id="Group_140" data-name="Group 140" transform="translate(197.588 116.592)" style="isolation: isolate">
      <g id="Group_139" data-name="Group 139">
        <g id="Group_138" data-name="Group 138" clip-path="url(#clip-path)">
          <g id="Group_131" data-name="Group 131" style="isolation: isolate">
            <g id="Group_130" data-name="Group 130">
              <g id="Group_129-2" data-name="Group 129" clip-path="url(#clip-path-2)">
                <text id="Optimizing" transform="translate(0 14.015)" fill="#fff" font-size="17" font-family="ArialMT, Arial"><tspan x="0" y="0">Optimizing</tspan></text>
              </g>
            </g>
          </g>
          <g id="Group_134" data-name="Group 134" transform="translate(0 20.479)" style="isolation: isolate">
            <g id="Group_133" data-name="Group 133">
              <g id="Group_132" data-name="Group 132" clip-path="url(#clip-path-3)">
                <text id="Digital" transform="translate(0 14.015)" fill="#fff" font-size="17" font-family="ArialMT, Arial"><tspan x="0" y="0">Digital</tspan></text>
              </g>
            </g>
          </g>
          <g id="Group_137" data-name="Group 137" transform="translate(0 40.957)" style="isolation: isolate">
            <g id="Group_136" data-name="Group 136">
              <g id="Group_135" data-name="Group 135" clip-path="url(#clip-path-4)">
                <text id="Innovation" transform="translate(0 14.015)" fill="#fff" font-size="17" font-family="ArialMT, Arial"><tspan x="0" y="0">Innovation</tspan></text>
              </g>
            </g>
          </g>
        </g>
      </g>
    </g>
    <line id="Line_5" data-name="Line 5" y2="55.988" transform="translate(188.135 118.074)" fill="none" stroke="#fff" stroke-width="1"/>
  </g>
</svg>
